<mxfile host="Electron" modified="2023-07-10T16:29:35.561Z" agent="Mozilla/5.0 (Windows NT 10.0; Win64; x64) AppleWebKit/537.36 (KHTML, like Gecko) draw.io/21.5.0 Chrome/112.0.5615.204 Electron/24.5.1 Safari/537.36" etag="M0m7PXMFb48Cq9MXnejF" version="21.5.0" type="device" pages="3">
  <diagram name="Pagina-1" id="DKXdiGo3e7sNOFDonYOM">
    <mxGraphModel dx="890" dy="434" grid="1" gridSize="10" guides="1" tooltips="1" connect="1" arrows="1" fold="1" page="1" pageScale="1" pageWidth="827" pageHeight="1169" math="0" shadow="0">
      <root>
        <mxCell id="0" />
        <mxCell id="1" parent="0" />
        <mxCell id="ed3WJtfmv-bhn-W8eo3I-34" style="edgeStyle=orthogonalEdgeStyle;rounded=0;orthogonalLoop=1;jettySize=auto;html=1;entryX=0;entryY=0.5;entryDx=0;entryDy=0;" parent="1" source="ed3WJtfmv-bhn-W8eo3I-1" target="ed3WJtfmv-bhn-W8eo3I-33" edge="1">
          <mxGeometry relative="1" as="geometry" />
        </mxCell>
        <mxCell id="ed3WJtfmv-bhn-W8eo3I-36" value="(0,N)" style="edgeLabel;html=1;align=center;verticalAlign=middle;resizable=0;points=[];" parent="ed3WJtfmv-bhn-W8eo3I-34" vertex="1" connectable="0">
          <mxGeometry x="-0.7807" y="-1" relative="1" as="geometry">
            <mxPoint as="offset" />
          </mxGeometry>
        </mxCell>
        <mxCell id="ed3WJtfmv-bhn-W8eo3I-1" value="UTENTE" style="swimlane;childLayout=stackLayout;horizontal=1;startSize=50;horizontalStack=0;rounded=1;fontSize=14;fontStyle=0;strokeWidth=2;resizeParent=0;resizeLast=1;shadow=0;dashed=0;align=center;arcSize=4;whiteSpace=wrap;html=1;" parent="1" vertex="1">
          <mxGeometry x="180" y="330" width="160" height="260" as="geometry" />
        </mxCell>
        <mxCell id="ed3WJtfmv-bhn-W8eo3I-2" value="+ ID_UTENTE&amp;nbsp;&lt;br&gt;- Congome (1,N)&lt;br&gt;- Nome (1,N)&lt;br&gt;- CF (1,1)&lt;br&gt;- Residenza:&lt;br&gt;&lt;span style=&quot;white-space: pre;&quot;&gt; &lt;/span&gt;- Via (1,1)&lt;br&gt;&lt;span style=&quot;white-space: pre;&quot;&gt; &lt;/span&gt;- Numero (1,1)&lt;br&gt;&lt;span style=&quot;white-space: pre;&quot;&gt; &lt;/span&gt;- Città(1,1)&lt;br&gt;&lt;span style=&quot;white-space: pre;&quot;&gt; &lt;/span&gt;- CAP(1,1)&lt;br&gt;- E-mail (1,1)&lt;br&gt;- Nome utente (1,1)&lt;br&gt;- Password (1,1)&lt;br&gt;- Tipo (1,1)" style="align=left;strokeColor=none;fillColor=none;spacingLeft=4;fontSize=12;verticalAlign=top;resizable=0;rotatable=0;part=1;html=1;" parent="ed3WJtfmv-bhn-W8eo3I-1" vertex="1">
          <mxGeometry y="50" width="160" height="210" as="geometry" />
        </mxCell>
        <mxCell id="ed3WJtfmv-bhn-W8eo3I-3" value="CANZONE" style="swimlane;childLayout=stackLayout;horizontal=1;startSize=50;horizontalStack=0;rounded=1;fontSize=14;fontStyle=0;strokeWidth=2;resizeParent=0;resizeLast=1;shadow=0;dashed=0;align=center;arcSize=4;whiteSpace=wrap;html=1;" parent="1" vertex="1">
          <mxGeometry x="740" y="830" width="160" height="230" as="geometry" />
        </mxCell>
        <mxCell id="ed3WJtfmv-bhn-W8eo3I-4" value="+ CODICE_CANZONE&lt;br&gt;- Anno (1,1)&lt;br&gt;- Autore (1,N)&lt;br&gt;- Titolo (1,1)" style="align=left;strokeColor=none;fillColor=none;spacingLeft=4;fontSize=12;verticalAlign=top;resizable=0;rotatable=0;part=1;html=1;" parent="ed3WJtfmv-bhn-W8eo3I-3" vertex="1">
          <mxGeometry y="50" width="160" height="180" as="geometry" />
        </mxCell>
        <mxCell id="ed3WJtfmv-bhn-W8eo3I-35" style="edgeStyle=orthogonalEdgeStyle;rounded=0;orthogonalLoop=1;jettySize=auto;html=1;entryX=1;entryY=0.5;entryDx=0;entryDy=0;" parent="1" source="ed3WJtfmv-bhn-W8eo3I-5" target="ed3WJtfmv-bhn-W8eo3I-33" edge="1">
          <mxGeometry relative="1" as="geometry">
            <Array as="points">
              <mxPoint x="1350" y="590" />
            </Array>
          </mxGeometry>
        </mxCell>
        <mxCell id="ed3WJtfmv-bhn-W8eo3I-37" value="(1,1)" style="edgeLabel;html=1;align=center;verticalAlign=middle;resizable=0;points=[];" parent="ed3WJtfmv-bhn-W8eo3I-35" vertex="1" connectable="0">
          <mxGeometry x="-0.1905" y="3" relative="1" as="geometry">
            <mxPoint as="offset" />
          </mxGeometry>
        </mxCell>
        <mxCell id="ed3WJtfmv-bhn-W8eo3I-5" value="EMOZIONI" style="swimlane;childLayout=stackLayout;horizontal=1;startSize=50;horizontalStack=0;rounded=1;fontSize=14;fontStyle=0;strokeWidth=2;resizeParent=0;resizeLast=1;shadow=0;dashed=0;align=center;arcSize=4;whiteSpace=wrap;html=1;" parent="1" vertex="1">
          <mxGeometry x="1250" y="760" width="200" height="370" as="geometry" />
        </mxCell>
        <mxCell id="ed3WJtfmv-bhn-W8eo3I-6" value="+ ID_EMOZIONE&lt;br&gt;- Voto_Stupore(1,1)&lt;br&gt;- Commento_Stupore(0,1)&lt;br&gt;- Voto_Solennità(1,1)&lt;br style=&quot;border-color: var(--border-color);&quot;&gt;- Commento_Solennità(0,1)&lt;br&gt;Voto_Tenerezza(1,1)&lt;br style=&quot;border-color: var(--border-color);&quot;&gt;- Commento_Tenerezza(0,1)&lt;br&gt;Voto_Nostalgia(1,1)&lt;br style=&quot;border-color: var(--border-color);&quot;&gt;- Commento_Nostalgia(0,1)&lt;br&gt;Voto_Calma(1,1)&lt;br style=&quot;border-color: var(--border-color);&quot;&gt;- Commento_Potenza(0,1)&lt;br&gt;Voto_Gioia(1,1)&lt;br style=&quot;border-color: var(--border-color);&quot;&gt;- Commento_Gioia(0,1)&lt;br&gt;Voto_Nervosismo(1,1)&lt;br style=&quot;border-color: var(--border-color);&quot;&gt;- Commento_Nervosismo(0,1)&lt;br&gt;Voto_tristezza(1,1)&lt;br style=&quot;border-color: var(--border-color);&quot;&gt;- Commento_Tristezza(0,1)" style="align=left;strokeColor=none;fillColor=none;spacingLeft=4;fontSize=12;verticalAlign=top;resizable=0;rotatable=0;part=1;html=1;" parent="ed3WJtfmv-bhn-W8eo3I-5" vertex="1">
          <mxGeometry y="50" width="200" height="320" as="geometry" />
        </mxCell>
        <mxCell id="ed3WJtfmv-bhn-W8eo3I-19" style="edgeStyle=orthogonalEdgeStyle;rounded=0;orthogonalLoop=1;jettySize=auto;html=1;entryX=0.5;entryY=1;entryDx=0;entryDy=0;" parent="1" source="ed3WJtfmv-bhn-W8eo3I-7" target="ed3WJtfmv-bhn-W8eo3I-17" edge="1">
          <mxGeometry relative="1" as="geometry" />
        </mxCell>
        <mxCell id="ed3WJtfmv-bhn-W8eo3I-21" value="(1,1)" style="edgeLabel;html=1;align=center;verticalAlign=middle;resizable=0;points=[];" parent="ed3WJtfmv-bhn-W8eo3I-19" vertex="1" connectable="0">
          <mxGeometry x="-0.2947" relative="1" as="geometry">
            <mxPoint as="offset" />
          </mxGeometry>
        </mxCell>
        <mxCell id="ed3WJtfmv-bhn-W8eo3I-7" value="PLAYLIST" style="swimlane;childLayout=stackLayout;horizontal=1;startSize=50;horizontalStack=0;rounded=1;fontSize=14;fontStyle=0;strokeWidth=2;resizeParent=0;resizeLast=1;shadow=0;dashed=0;align=center;arcSize=4;whiteSpace=wrap;html=1;" parent="1" vertex="1">
          <mxGeometry x="180" y="840" width="160" height="230" as="geometry" />
        </mxCell>
        <mxCell id="ed3WJtfmv-bhn-W8eo3I-8" value="+ ID_PLAYLIST&lt;br&gt;- Nome(1,1)" style="align=left;strokeColor=none;fillColor=none;spacingLeft=4;fontSize=12;verticalAlign=top;resizable=0;rotatable=0;part=1;html=1;" parent="ed3WJtfmv-bhn-W8eo3I-7" vertex="1">
          <mxGeometry y="50" width="160" height="180" as="geometry" />
        </mxCell>
        <mxCell id="ed3WJtfmv-bhn-W8eo3I-17" value="crea" style="shape=rhombus;double=1;perimeter=rhombusPerimeter;whiteSpace=wrap;html=1;align=center;" parent="1" vertex="1">
          <mxGeometry x="200" y="685" width="120" height="60" as="geometry" />
        </mxCell>
        <mxCell id="ed3WJtfmv-bhn-W8eo3I-18" style="edgeStyle=orthogonalEdgeStyle;rounded=0;orthogonalLoop=1;jettySize=auto;html=1;entryX=0.5;entryY=0;entryDx=0;entryDy=0;" parent="1" source="ed3WJtfmv-bhn-W8eo3I-2" target="ed3WJtfmv-bhn-W8eo3I-17" edge="1">
          <mxGeometry relative="1" as="geometry" />
        </mxCell>
        <mxCell id="ed3WJtfmv-bhn-W8eo3I-20" value="(0,N)" style="edgeLabel;html=1;align=center;verticalAlign=middle;resizable=0;points=[];" parent="ed3WJtfmv-bhn-W8eo3I-18" vertex="1" connectable="0">
          <mxGeometry x="-0.2877" y="-2" relative="1" as="geometry">
            <mxPoint as="offset" />
          </mxGeometry>
        </mxCell>
        <mxCell id="ed3WJtfmv-bhn-W8eo3I-22" value="ha" style="shape=rhombus;double=1;perimeter=rhombusPerimeter;whiteSpace=wrap;html=1;align=center;" parent="1" vertex="1">
          <mxGeometry x="1010" y="940" width="120" height="60" as="geometry" />
        </mxCell>
        <mxCell id="ed3WJtfmv-bhn-W8eo3I-23" style="edgeStyle=orthogonalEdgeStyle;rounded=0;orthogonalLoop=1;jettySize=auto;html=1;entryX=0;entryY=0.5;entryDx=0;entryDy=0;" parent="1" source="ed3WJtfmv-bhn-W8eo3I-4" target="ed3WJtfmv-bhn-W8eo3I-22" edge="1">
          <mxGeometry relative="1" as="geometry" />
        </mxCell>
        <mxCell id="ed3WJtfmv-bhn-W8eo3I-26" value="(0,N)" style="edgeLabel;html=1;align=center;verticalAlign=middle;resizable=0;points=[];" parent="ed3WJtfmv-bhn-W8eo3I-23" vertex="1" connectable="0">
          <mxGeometry x="-0.2758" y="-1" relative="1" as="geometry">
            <mxPoint as="offset" />
          </mxGeometry>
        </mxCell>
        <mxCell id="ed3WJtfmv-bhn-W8eo3I-24" style="edgeStyle=orthogonalEdgeStyle;rounded=0;orthogonalLoop=1;jettySize=auto;html=1;entryX=1;entryY=0.5;entryDx=0;entryDy=0;" parent="1" source="ed3WJtfmv-bhn-W8eo3I-6" target="ed3WJtfmv-bhn-W8eo3I-22" edge="1">
          <mxGeometry relative="1" as="geometry" />
        </mxCell>
        <mxCell id="ed3WJtfmv-bhn-W8eo3I-27" value="(0,1)" style="edgeLabel;html=1;align=center;verticalAlign=middle;resizable=0;points=[];" parent="ed3WJtfmv-bhn-W8eo3I-24" vertex="1" connectable="0">
          <mxGeometry x="-0.2056" y="1" relative="1" as="geometry">
            <mxPoint as="offset" />
          </mxGeometry>
        </mxCell>
        <mxCell id="ed3WJtfmv-bhn-W8eo3I-28" value="contiene" style="shape=rhombus;double=1;perimeter=rhombusPerimeter;whiteSpace=wrap;html=1;align=center;" parent="1" vertex="1">
          <mxGeometry x="470" y="939" width="120" height="60" as="geometry" />
        </mxCell>
        <mxCell id="ed3WJtfmv-bhn-W8eo3I-29" style="edgeStyle=orthogonalEdgeStyle;rounded=0;orthogonalLoop=1;jettySize=auto;html=1;entryX=0;entryY=0.5;entryDx=0;entryDy=0;" parent="1" source="ed3WJtfmv-bhn-W8eo3I-8" target="ed3WJtfmv-bhn-W8eo3I-28" edge="1">
          <mxGeometry relative="1" as="geometry" />
        </mxCell>
        <mxCell id="ed3WJtfmv-bhn-W8eo3I-31" value="(0,N)" style="edgeLabel;html=1;align=center;verticalAlign=middle;resizable=0;points=[];" parent="ed3WJtfmv-bhn-W8eo3I-29" vertex="1" connectable="0">
          <mxGeometry x="-0.3738" relative="1" as="geometry">
            <mxPoint as="offset" />
          </mxGeometry>
        </mxCell>
        <mxCell id="ed3WJtfmv-bhn-W8eo3I-30" style="edgeStyle=orthogonalEdgeStyle;rounded=0;orthogonalLoop=1;jettySize=auto;html=1;entryX=1;entryY=0.5;entryDx=0;entryDy=0;" parent="1" source="ed3WJtfmv-bhn-W8eo3I-4" target="ed3WJtfmv-bhn-W8eo3I-28" edge="1">
          <mxGeometry relative="1" as="geometry" />
        </mxCell>
        <mxCell id="ed3WJtfmv-bhn-W8eo3I-32" value="(0,N)" style="edgeLabel;html=1;align=center;verticalAlign=middle;resizable=0;points=[];" parent="ed3WJtfmv-bhn-W8eo3I-30" vertex="1" connectable="0">
          <mxGeometry x="-0.0955" relative="1" as="geometry">
            <mxPoint as="offset" />
          </mxGeometry>
        </mxCell>
        <mxCell id="ed3WJtfmv-bhn-W8eo3I-33" value="inserisce" style="shape=rhombus;double=1;perimeter=rhombusPerimeter;whiteSpace=wrap;html=1;align=center;" parent="1" vertex="1">
          <mxGeometry x="760" y="560" width="120" height="60" as="geometry" />
        </mxCell>
        <mxCell id="ed3WJtfmv-bhn-W8eo3I-41" value="PROGETTAZIONE CONCETTUALE" style="text;html=1;align=center;verticalAlign=middle;resizable=0;points=[];autosize=1;strokeColor=none;fillColor=none;fontSize=20;" parent="1" vertex="1">
          <mxGeometry x="30" y="30" width="350" height="40" as="geometry" />
        </mxCell>
      </root>
    </mxGraphModel>
  </diagram>
  <diagram name="Pagina-2" id="ym4mz6ySEGxNQo2ToV8p">
    <mxGraphModel dx="1290" dy="629" grid="1" gridSize="10" guides="1" tooltips="1" connect="1" arrows="1" fold="1" page="1" pageScale="1" pageWidth="827" pageHeight="1169" math="0" shadow="0">
      <root>
        <mxCell id="D5llQRHla7l5LzOIzu6N-0" />
        <mxCell id="D5llQRHla7l5LzOIzu6N-1" parent="D5llQRHla7l5LzOIzu6N-0" />
        <mxCell id="D5llQRHla7l5LzOIzu6N-2" value="PROGETTAZIONE LOGICA" style="text;html=1;align=center;verticalAlign=middle;resizable=0;points=[];autosize=1;strokeColor=none;fillColor=none;fontSize=20;" parent="D5llQRHla7l5LzOIzu6N-1" vertex="1">
          <mxGeometry x="70" y="30" width="270" height="40" as="geometry" />
        </mxCell>
        <mxCell id="D5llQRHla7l5LzOIzu6N-3" style="edgeStyle=orthogonalEdgeStyle;rounded=0;orthogonalLoop=1;jettySize=auto;html=1;entryX=0;entryY=0.5;entryDx=0;entryDy=0;" parent="D5llQRHla7l5LzOIzu6N-1" source="D5llQRHla7l5LzOIzu6N-5" target="D5llQRHla7l5LzOIzu6N-32" edge="1">
          <mxGeometry relative="1" as="geometry" />
        </mxCell>
        <mxCell id="D5llQRHla7l5LzOIzu6N-4" value="(0,N)" style="edgeLabel;html=1;align=center;verticalAlign=middle;resizable=0;points=[];" parent="D5llQRHla7l5LzOIzu6N-3" vertex="1" connectable="0">
          <mxGeometry x="-0.7807" y="-1" relative="1" as="geometry">
            <mxPoint as="offset" />
          </mxGeometry>
        </mxCell>
        <mxCell id="D5llQRHla7l5LzOIzu6N-5" value="UTENTE" style="swimlane;childLayout=stackLayout;horizontal=1;startSize=50;horizontalStack=0;rounded=1;fontSize=14;fontStyle=0;strokeWidth=2;resizeParent=0;resizeLast=1;shadow=0;dashed=0;align=center;arcSize=4;whiteSpace=wrap;html=1;" parent="D5llQRHla7l5LzOIzu6N-1" vertex="1">
          <mxGeometry x="180" y="360" width="160" height="230" as="geometry" />
        </mxCell>
        <mxCell id="D5llQRHla7l5LzOIzu6N-6" value="+ ID_UTENTE&amp;nbsp;&lt;br&gt;- Nome (1,1)&lt;br&gt;- Cognome (1,1)&lt;br&gt;- CF (1,1)&lt;br&gt;- Via (1,1)&lt;br&gt;- Numero (1,1)&lt;br&gt;- Città(1,1)&lt;br&gt;- CAP(1,1)&lt;br&gt;- E-mail (1,1)&lt;br&gt;- Nome utente (1,1)&lt;br&gt;- Password (1,1)" style="align=left;strokeColor=none;fillColor=none;spacingLeft=4;fontSize=12;verticalAlign=top;resizable=0;rotatable=0;part=1;html=1;" parent="D5llQRHla7l5LzOIzu6N-5" vertex="1">
          <mxGeometry y="50" width="160" height="180" as="geometry" />
        </mxCell>
        <mxCell id="D5llQRHla7l5LzOIzu6N-9" value="CANZONE" style="swimlane;childLayout=stackLayout;horizontal=1;startSize=50;horizontalStack=0;rounded=1;fontSize=14;fontStyle=0;strokeWidth=2;resizeParent=0;resizeLast=1;shadow=0;dashed=0;align=center;arcSize=4;whiteSpace=wrap;html=1;" parent="D5llQRHla7l5LzOIzu6N-1" vertex="1">
          <mxGeometry x="740" y="830" width="160" height="230" as="geometry" />
        </mxCell>
        <mxCell id="D5llQRHla7l5LzOIzu6N-10" value="+ ID_CANZONE&lt;br&gt;- Autore (1,1)&lt;br&gt;- Anno (1,1)&lt;br&gt;- Titolo (1,1)" style="align=left;strokeColor=none;fillColor=none;spacingLeft=4;fontSize=12;verticalAlign=top;resizable=0;rotatable=0;part=1;html=1;" parent="D5llQRHla7l5LzOIzu6N-9" vertex="1">
          <mxGeometry y="50" width="160" height="180" as="geometry" />
        </mxCell>
        <mxCell id="D5llQRHla7l5LzOIzu6N-11" style="edgeStyle=orthogonalEdgeStyle;rounded=0;orthogonalLoop=1;jettySize=auto;html=1;exitX=1;exitY=0.5;exitDx=0;exitDy=0;" parent="D5llQRHla7l5LzOIzu6N-1" source="D5llQRHla7l5LzOIzu6N-32" target="D5llQRHla7l5LzOIzu6N-13" edge="1">
          <mxGeometry relative="1" as="geometry">
            <Array as="points">
              <mxPoint x="1350" y="590" />
            </Array>
          </mxGeometry>
        </mxCell>
        <mxCell id="D5llQRHla7l5LzOIzu6N-12" value="(1,1)" style="edgeLabel;html=1;align=center;verticalAlign=middle;resizable=0;points=[];" parent="D5llQRHla7l5LzOIzu6N-11" vertex="1" connectable="0">
          <mxGeometry x="-0.1603" y="1" relative="1" as="geometry">
            <mxPoint as="offset" />
          </mxGeometry>
        </mxCell>
        <mxCell id="D5llQRHla7l5LzOIzu6N-13" value="EMOZIONI" style="swimlane;childLayout=stackLayout;horizontal=1;startSize=50;horizontalStack=0;rounded=1;fontSize=14;fontStyle=0;strokeWidth=2;resizeParent=0;resizeLast=1;shadow=0;dashed=0;align=center;arcSize=4;whiteSpace=wrap;html=1;" parent="D5llQRHla7l5LzOIzu6N-1" vertex="1">
          <mxGeometry x="1250" y="760" width="200" height="370" as="geometry" />
        </mxCell>
        <mxCell id="D5llQRHla7l5LzOIzu6N-14" value="+ ID_EMOZIONE&lt;br&gt;- Voto_Stupore(1,1)&lt;br&gt;- Commento_Stupore(0,1)&lt;br&gt;- Voto_Solennità(1,1)&lt;br style=&quot;border-color: var(--border-color);&quot;&gt;- Commento_Solennità(0,1)&lt;br&gt;- Voto_Tenerezza(1,1)&lt;br style=&quot;border-color: var(--border-color);&quot;&gt;- Commento_Tenerezza(0,1)&lt;br&gt;- Voto_Nostalgia(1,1)&lt;br style=&quot;border-color: var(--border-color);&quot;&gt;- Commento_Nostalgia(0,1)&lt;br&gt;- Voto_Calma(1,1)&lt;br style=&quot;border-color: var(--border-color);&quot;&gt;- Commento_Potenza(0,1)&lt;br&gt;- Voto_Gioia(1,1)&lt;br style=&quot;border-color: var(--border-color);&quot;&gt;- Commento_Gioia(0,1)&lt;br&gt;- Voto_Nervosismo(1,1)&lt;br style=&quot;border-color: var(--border-color);&quot;&gt;- Commento_Nervosismo(0,1)&lt;br&gt;- Voto_tristezza(1,1)&lt;br style=&quot;border-color: var(--border-color);&quot;&gt;- Commento_Tristezza(0,1)" style="align=left;strokeColor=none;fillColor=none;spacingLeft=4;fontSize=12;verticalAlign=top;resizable=0;rotatable=0;part=1;html=1;" parent="D5llQRHla7l5LzOIzu6N-13" vertex="1">
          <mxGeometry y="50" width="200" height="320" as="geometry" />
        </mxCell>
        <mxCell id="D5llQRHla7l5LzOIzu6N-15" style="edgeStyle=orthogonalEdgeStyle;rounded=0;orthogonalLoop=1;jettySize=auto;html=1;exitX=0.5;exitY=1;exitDx=0;exitDy=0;" parent="D5llQRHla7l5LzOIzu6N-1" source="D5llQRHla7l5LzOIzu6N-19" target="D5llQRHla7l5LzOIzu6N-17" edge="1">
          <mxGeometry relative="1" as="geometry" />
        </mxCell>
        <mxCell id="D5llQRHla7l5LzOIzu6N-16" value="(1,1)" style="edgeLabel;html=1;align=center;verticalAlign=middle;resizable=0;points=[];" parent="D5llQRHla7l5LzOIzu6N-15" vertex="1" connectable="0">
          <mxGeometry x="-0.2947" relative="1" as="geometry">
            <mxPoint as="offset" />
          </mxGeometry>
        </mxCell>
        <mxCell id="D5llQRHla7l5LzOIzu6N-17" value="PLAYLIST" style="swimlane;childLayout=stackLayout;horizontal=1;startSize=50;horizontalStack=0;rounded=1;fontSize=14;fontStyle=0;strokeWidth=2;resizeParent=0;resizeLast=1;shadow=0;dashed=0;align=center;arcSize=4;whiteSpace=wrap;html=1;" parent="D5llQRHla7l5LzOIzu6N-1" vertex="1">
          <mxGeometry x="180" y="840" width="160" height="230" as="geometry" />
        </mxCell>
        <mxCell id="D5llQRHla7l5LzOIzu6N-18" value="+ ID_PLAYLIST&lt;br&gt;- Nome(1,1)" style="align=left;strokeColor=none;fillColor=none;spacingLeft=4;fontSize=12;verticalAlign=top;resizable=0;rotatable=0;part=1;html=1;" parent="D5llQRHla7l5LzOIzu6N-17" vertex="1">
          <mxGeometry y="50" width="160" height="180" as="geometry" />
        </mxCell>
        <mxCell id="D5llQRHla7l5LzOIzu6N-19" value="crea" style="shape=rhombus;double=1;perimeter=rhombusPerimeter;whiteSpace=wrap;html=1;align=center;" parent="D5llQRHla7l5LzOIzu6N-1" vertex="1">
          <mxGeometry x="200" y="685" width="120" height="60" as="geometry" />
        </mxCell>
        <mxCell id="D5llQRHla7l5LzOIzu6N-20" style="edgeStyle=orthogonalEdgeStyle;rounded=0;orthogonalLoop=1;jettySize=auto;html=1;entryX=0.5;entryY=0;entryDx=0;entryDy=0;" parent="D5llQRHla7l5LzOIzu6N-1" source="D5llQRHla7l5LzOIzu6N-6" target="D5llQRHla7l5LzOIzu6N-19" edge="1">
          <mxGeometry relative="1" as="geometry" />
        </mxCell>
        <mxCell id="D5llQRHla7l5LzOIzu6N-21" value="(0,N)" style="edgeLabel;html=1;align=center;verticalAlign=middle;resizable=0;points=[];" parent="D5llQRHla7l5LzOIzu6N-20" vertex="1" connectable="0">
          <mxGeometry x="-0.2877" y="-2" relative="1" as="geometry">
            <mxPoint as="offset" />
          </mxGeometry>
        </mxCell>
        <mxCell id="D5llQRHla7l5LzOIzu6N-22" value="ha" style="shape=rhombus;double=1;perimeter=rhombusPerimeter;whiteSpace=wrap;html=1;align=center;" parent="D5llQRHla7l5LzOIzu6N-1" vertex="1">
          <mxGeometry x="1010" y="940" width="120" height="60" as="geometry" />
        </mxCell>
        <mxCell id="D5llQRHla7l5LzOIzu6N-23" style="edgeStyle=orthogonalEdgeStyle;rounded=0;orthogonalLoop=1;jettySize=auto;html=1;entryX=0;entryY=0.5;entryDx=0;entryDy=0;" parent="D5llQRHla7l5LzOIzu6N-1" source="D5llQRHla7l5LzOIzu6N-10" target="D5llQRHla7l5LzOIzu6N-22" edge="1">
          <mxGeometry relative="1" as="geometry" />
        </mxCell>
        <mxCell id="D5llQRHla7l5LzOIzu6N-24" value="(0,N)" style="edgeLabel;html=1;align=center;verticalAlign=middle;resizable=0;points=[];" parent="D5llQRHla7l5LzOIzu6N-23" vertex="1" connectable="0">
          <mxGeometry x="-0.2758" y="-1" relative="1" as="geometry">
            <mxPoint as="offset" />
          </mxGeometry>
        </mxCell>
        <mxCell id="D5llQRHla7l5LzOIzu6N-25" style="edgeStyle=orthogonalEdgeStyle;rounded=0;orthogonalLoop=1;jettySize=auto;html=1;exitX=1;exitY=0.5;exitDx=0;exitDy=0;" parent="D5llQRHla7l5LzOIzu6N-1" source="D5llQRHla7l5LzOIzu6N-22" target="D5llQRHla7l5LzOIzu6N-14" edge="1">
          <mxGeometry relative="1" as="geometry" />
        </mxCell>
        <mxCell id="D5llQRHla7l5LzOIzu6N-26" value="(0,1)" style="edgeLabel;html=1;align=center;verticalAlign=middle;resizable=0;points=[];" parent="D5llQRHla7l5LzOIzu6N-25" vertex="1" connectable="0">
          <mxGeometry x="-0.2056" y="1" relative="1" as="geometry">
            <mxPoint as="offset" />
          </mxGeometry>
        </mxCell>
        <mxCell id="D5llQRHla7l5LzOIzu6N-27" value="contiene" style="shape=rhombus;double=1;perimeter=rhombusPerimeter;whiteSpace=wrap;html=1;align=center;" parent="D5llQRHla7l5LzOIzu6N-1" vertex="1">
          <mxGeometry x="470" y="939" width="120" height="60" as="geometry" />
        </mxCell>
        <mxCell id="D5llQRHla7l5LzOIzu6N-28" style="edgeStyle=orthogonalEdgeStyle;rounded=0;orthogonalLoop=1;jettySize=auto;html=1;entryX=0;entryY=0.5;entryDx=0;entryDy=0;" parent="D5llQRHla7l5LzOIzu6N-1" source="D5llQRHla7l5LzOIzu6N-18" target="D5llQRHla7l5LzOIzu6N-27" edge="1">
          <mxGeometry relative="1" as="geometry" />
        </mxCell>
        <mxCell id="D5llQRHla7l5LzOIzu6N-29" value="(0,N)" style="edgeLabel;html=1;align=center;verticalAlign=middle;resizable=0;points=[];" parent="D5llQRHla7l5LzOIzu6N-28" vertex="1" connectable="0">
          <mxGeometry x="-0.3738" relative="1" as="geometry">
            <mxPoint as="offset" />
          </mxGeometry>
        </mxCell>
        <mxCell id="D5llQRHla7l5LzOIzu6N-30" style="edgeStyle=orthogonalEdgeStyle;rounded=0;orthogonalLoop=1;jettySize=auto;html=1;entryX=1;entryY=0.5;entryDx=0;entryDy=0;" parent="D5llQRHla7l5LzOIzu6N-1" source="D5llQRHla7l5LzOIzu6N-10" target="D5llQRHla7l5LzOIzu6N-27" edge="1">
          <mxGeometry relative="1" as="geometry" />
        </mxCell>
        <mxCell id="D5llQRHla7l5LzOIzu6N-31" value="(0,N)" style="edgeLabel;html=1;align=center;verticalAlign=middle;resizable=0;points=[];" parent="D5llQRHla7l5LzOIzu6N-30" vertex="1" connectable="0">
          <mxGeometry x="-0.0955" relative="1" as="geometry">
            <mxPoint as="offset" />
          </mxGeometry>
        </mxCell>
        <mxCell id="D5llQRHla7l5LzOIzu6N-32" value="inserisce" style="shape=rhombus;double=1;perimeter=rhombusPerimeter;whiteSpace=wrap;html=1;align=center;" parent="D5llQRHla7l5LzOIzu6N-1" vertex="1">
          <mxGeometry x="760" y="560" width="120" height="60" as="geometry" />
        </mxCell>
        <mxCell id="D5llQRHla7l5LzOIzu6N-33" value="Modificati: residenza" style="shape=note;size=20;whiteSpace=wrap;html=1;" parent="D5llQRHla7l5LzOIzu6N-1" vertex="1">
          <mxGeometry x="60" y="520" width="100" height="100" as="geometry" />
        </mxCell>
        <mxCell id="cOssIugImUwzRYO-sGgZ-0" value="La direzione della freccia indica già la traslazione delle chiavi" style="text;html=1;align=center;verticalAlign=middle;resizable=0;points=[];autosize=1;strokeColor=none;fillColor=none;" parent="D5llQRHla7l5LzOIzu6N-1" vertex="1">
          <mxGeometry x="40" y="1120" width="350" height="30" as="geometry" />
        </mxCell>
      </root>
    </mxGraphModel>
  </diagram>
  <diagram id="INAcMYfHVASyaiQxF6lo" name="Pagina-2(errata)">
    <mxGraphModel dx="2103" dy="614" grid="1" gridSize="10" guides="1" tooltips="1" connect="1" arrows="1" fold="1" page="1" pageScale="1" pageWidth="827" pageHeight="1169" math="0" shadow="0">
      <root>
        <mxCell id="0" />
        <mxCell id="1" parent="0" />
        <mxCell id="XkjyGW3ftOpuFySh06ly-1" value="PROGETTAZIONE LOGICA" style="text;html=1;align=center;verticalAlign=middle;resizable=0;points=[];autosize=1;strokeColor=none;fillColor=none;fontSize=20;" parent="1" vertex="1">
          <mxGeometry x="70" y="30" width="270" height="40" as="geometry" />
        </mxCell>
        <mxCell id="NiqyQOjlXDi9eQ2mBg9f-2" style="edgeStyle=orthogonalEdgeStyle;rounded=0;orthogonalLoop=1;jettySize=auto;html=1;entryX=0;entryY=0.5;entryDx=0;entryDy=0;" parent="1" source="NiqyQOjlXDi9eQ2mBg9f-4" target="NiqyQOjlXDi9eQ2mBg9f-32" edge="1">
          <mxGeometry relative="1" as="geometry" />
        </mxCell>
        <mxCell id="NiqyQOjlXDi9eQ2mBg9f-3" value="(0,N)" style="edgeLabel;html=1;align=center;verticalAlign=middle;resizable=0;points=[];" parent="NiqyQOjlXDi9eQ2mBg9f-2" vertex="1" connectable="0">
          <mxGeometry x="-0.7807" y="-1" relative="1" as="geometry">
            <mxPoint as="offset" />
          </mxGeometry>
        </mxCell>
        <mxCell id="NiqyQOjlXDi9eQ2mBg9f-4" value="UTENTE" style="swimlane;childLayout=stackLayout;horizontal=1;startSize=50;horizontalStack=0;rounded=1;fontSize=14;fontStyle=0;strokeWidth=2;resizeParent=0;resizeLast=1;shadow=0;dashed=0;align=center;arcSize=4;whiteSpace=wrap;html=1;" parent="1" vertex="1">
          <mxGeometry x="180" y="360" width="160" height="230" as="geometry" />
        </mxCell>
        <mxCell id="NiqyQOjlXDi9eQ2mBg9f-5" value="+ ID_UTENTE&amp;nbsp;&lt;br&gt;- CF (1,1)&lt;br&gt;- Via (1,1)&lt;br&gt;- Numero (1,1)&lt;br&gt;- Città(1,1)&lt;br&gt;- CAP(1,1)&lt;br&gt;- E-mail (1,1)&lt;br&gt;- Nome utente (1,1)&lt;br&gt;- Password (1,1)" style="align=left;strokeColor=none;fillColor=none;spacingLeft=4;fontSize=12;verticalAlign=top;resizable=0;rotatable=0;part=1;html=1;" parent="NiqyQOjlXDi9eQ2mBg9f-4" vertex="1">
          <mxGeometry y="50" width="160" height="180" as="geometry" />
        </mxCell>
        <mxCell id="NiqyQOjlXDi9eQ2mBg9f-51" style="edgeStyle=orthogonalEdgeStyle;rounded=0;orthogonalLoop=1;jettySize=auto;html=1;entryX=0;entryY=0.5;entryDx=0;entryDy=0;" parent="1" source="NiqyQOjlXDi9eQ2mBg9f-6" target="NiqyQOjlXDi9eQ2mBg9f-50" edge="1">
          <mxGeometry relative="1" as="geometry">
            <Array as="points">
              <mxPoint x="820" y="780" />
            </Array>
          </mxGeometry>
        </mxCell>
        <mxCell id="NiqyQOjlXDi9eQ2mBg9f-56" value="(1,N)" style="edgeLabel;html=1;align=center;verticalAlign=middle;resizable=0;points=[];" parent="NiqyQOjlXDi9eQ2mBg9f-51" vertex="1" connectable="0">
          <mxGeometry x="-0.3662" y="-1" relative="1" as="geometry">
            <mxPoint as="offset" />
          </mxGeometry>
        </mxCell>
        <mxCell id="NiqyQOjlXDi9eQ2mBg9f-6" value="CANZONE" style="swimlane;childLayout=stackLayout;horizontal=1;startSize=50;horizontalStack=0;rounded=1;fontSize=14;fontStyle=0;strokeWidth=2;resizeParent=0;resizeLast=1;shadow=0;dashed=0;align=center;arcSize=4;whiteSpace=wrap;html=1;" parent="1" vertex="1">
          <mxGeometry x="740" y="830" width="160" height="230" as="geometry" />
        </mxCell>
        <mxCell id="NiqyQOjlXDi9eQ2mBg9f-7" value="+ CODICE_CANZONE&lt;br&gt;- Anno (1,1)&lt;br&gt;- Titolo (1,1)" style="align=left;strokeColor=none;fillColor=none;spacingLeft=4;fontSize=12;verticalAlign=top;resizable=0;rotatable=0;part=1;html=1;" parent="NiqyQOjlXDi9eQ2mBg9f-6" vertex="1">
          <mxGeometry y="50" width="160" height="180" as="geometry" />
        </mxCell>
        <mxCell id="NiqyQOjlXDi9eQ2mBg9f-8" style="edgeStyle=orthogonalEdgeStyle;rounded=0;orthogonalLoop=1;jettySize=auto;html=1;entryX=1;entryY=0.5;entryDx=0;entryDy=0;" parent="1" source="NiqyQOjlXDi9eQ2mBg9f-10" target="NiqyQOjlXDi9eQ2mBg9f-32" edge="1">
          <mxGeometry relative="1" as="geometry">
            <Array as="points">
              <mxPoint x="1350" y="590" />
            </Array>
          </mxGeometry>
        </mxCell>
        <mxCell id="NiqyQOjlXDi9eQ2mBg9f-59" value="(1,1)" style="edgeLabel;html=1;align=center;verticalAlign=middle;resizable=0;points=[];" parent="NiqyQOjlXDi9eQ2mBg9f-8" vertex="1" connectable="0">
          <mxGeometry x="-0.1603" y="1" relative="1" as="geometry">
            <mxPoint as="offset" />
          </mxGeometry>
        </mxCell>
        <mxCell id="NiqyQOjlXDi9eQ2mBg9f-10" value="EMOZIONI" style="swimlane;childLayout=stackLayout;horizontal=1;startSize=50;horizontalStack=0;rounded=1;fontSize=14;fontStyle=0;strokeWidth=2;resizeParent=0;resizeLast=1;shadow=0;dashed=0;align=center;arcSize=4;whiteSpace=wrap;html=1;" parent="1" vertex="1">
          <mxGeometry x="1250" y="760" width="200" height="370" as="geometry" />
        </mxCell>
        <mxCell id="NiqyQOjlXDi9eQ2mBg9f-11" value="+ ID_EMOZIONE&lt;br&gt;- Voto_Stupore(1,1)&lt;br&gt;- Commento_Stupore(0,1)&lt;br&gt;- Voto_Solennità(1,1)&lt;br style=&quot;border-color: var(--border-color);&quot;&gt;- Commento_Solennità(0,1)&lt;br&gt;- Voto_Tenerezza(1,1)&lt;br style=&quot;border-color: var(--border-color);&quot;&gt;- Commento_Tenerezza(0,1)&lt;br&gt;- Voto_Nostalgia(1,1)&lt;br style=&quot;border-color: var(--border-color);&quot;&gt;- Commento_Nostalgia(0,1)&lt;br&gt;- Voto_Calma(1,1)&lt;br style=&quot;border-color: var(--border-color);&quot;&gt;- Commento_Potenza(0,1)&lt;br&gt;- Voto_Gioia(1,1)&lt;br style=&quot;border-color: var(--border-color);&quot;&gt;- Commento_Gioia(0,1)&lt;br&gt;- Voto_Nervosismo(1,1)&lt;br style=&quot;border-color: var(--border-color);&quot;&gt;- Commento_Nervosismo(0,1)&lt;br&gt;- Voto_tristezza(1,1)&lt;br style=&quot;border-color: var(--border-color);&quot;&gt;- Commento_Tristezza(0,1)" style="align=left;strokeColor=none;fillColor=none;spacingLeft=4;fontSize=12;verticalAlign=top;resizable=0;rotatable=0;part=1;html=1;" parent="NiqyQOjlXDi9eQ2mBg9f-10" vertex="1">
          <mxGeometry y="50" width="200" height="320" as="geometry" />
        </mxCell>
        <mxCell id="NiqyQOjlXDi9eQ2mBg9f-12" style="edgeStyle=orthogonalEdgeStyle;rounded=0;orthogonalLoop=1;jettySize=auto;html=1;entryX=0.5;entryY=1;entryDx=0;entryDy=0;" parent="1" source="NiqyQOjlXDi9eQ2mBg9f-14" target="NiqyQOjlXDi9eQ2mBg9f-19" edge="1">
          <mxGeometry relative="1" as="geometry" />
        </mxCell>
        <mxCell id="NiqyQOjlXDi9eQ2mBg9f-13" value="(1,1)" style="edgeLabel;html=1;align=center;verticalAlign=middle;resizable=0;points=[];" parent="NiqyQOjlXDi9eQ2mBg9f-12" vertex="1" connectable="0">
          <mxGeometry x="-0.2947" relative="1" as="geometry">
            <mxPoint as="offset" />
          </mxGeometry>
        </mxCell>
        <mxCell id="NiqyQOjlXDi9eQ2mBg9f-14" value="PLAYLIST" style="swimlane;childLayout=stackLayout;horizontal=1;startSize=50;horizontalStack=0;rounded=1;fontSize=14;fontStyle=0;strokeWidth=2;resizeParent=0;resizeLast=1;shadow=0;dashed=0;align=center;arcSize=4;whiteSpace=wrap;html=1;" parent="1" vertex="1">
          <mxGeometry x="180" y="840" width="160" height="230" as="geometry" />
        </mxCell>
        <mxCell id="NiqyQOjlXDi9eQ2mBg9f-15" value="+ ID_PLAYLIST&lt;br&gt;- Nome(1,1)" style="align=left;strokeColor=none;fillColor=none;spacingLeft=4;fontSize=12;verticalAlign=top;resizable=0;rotatable=0;part=1;html=1;" parent="NiqyQOjlXDi9eQ2mBg9f-14" vertex="1">
          <mxGeometry y="50" width="160" height="180" as="geometry" />
        </mxCell>
        <mxCell id="NiqyQOjlXDi9eQ2mBg9f-19" value="crea" style="shape=rhombus;double=1;perimeter=rhombusPerimeter;whiteSpace=wrap;html=1;align=center;" parent="1" vertex="1">
          <mxGeometry x="200" y="685" width="120" height="60" as="geometry" />
        </mxCell>
        <mxCell id="NiqyQOjlXDi9eQ2mBg9f-20" style="edgeStyle=orthogonalEdgeStyle;rounded=0;orthogonalLoop=1;jettySize=auto;html=1;entryX=0.5;entryY=0;entryDx=0;entryDy=0;" parent="1" source="NiqyQOjlXDi9eQ2mBg9f-5" target="NiqyQOjlXDi9eQ2mBg9f-19" edge="1">
          <mxGeometry relative="1" as="geometry" />
        </mxCell>
        <mxCell id="NiqyQOjlXDi9eQ2mBg9f-21" value="(0,N)" style="edgeLabel;html=1;align=center;verticalAlign=middle;resizable=0;points=[];" parent="NiqyQOjlXDi9eQ2mBg9f-20" vertex="1" connectable="0">
          <mxGeometry x="-0.2877" y="-2" relative="1" as="geometry">
            <mxPoint as="offset" />
          </mxGeometry>
        </mxCell>
        <mxCell id="NiqyQOjlXDi9eQ2mBg9f-22" value="ha" style="shape=rhombus;double=1;perimeter=rhombusPerimeter;whiteSpace=wrap;html=1;align=center;" parent="1" vertex="1">
          <mxGeometry x="1010" y="940" width="120" height="60" as="geometry" />
        </mxCell>
        <mxCell id="NiqyQOjlXDi9eQ2mBg9f-23" style="edgeStyle=orthogonalEdgeStyle;rounded=0;orthogonalLoop=1;jettySize=auto;html=1;entryX=0;entryY=0.5;entryDx=0;entryDy=0;" parent="1" source="NiqyQOjlXDi9eQ2mBg9f-7" target="NiqyQOjlXDi9eQ2mBg9f-22" edge="1">
          <mxGeometry relative="1" as="geometry" />
        </mxCell>
        <mxCell id="NiqyQOjlXDi9eQ2mBg9f-24" value="(0,N)" style="edgeLabel;html=1;align=center;verticalAlign=middle;resizable=0;points=[];" parent="NiqyQOjlXDi9eQ2mBg9f-23" vertex="1" connectable="0">
          <mxGeometry x="-0.2758" y="-1" relative="1" as="geometry">
            <mxPoint as="offset" />
          </mxGeometry>
        </mxCell>
        <mxCell id="NiqyQOjlXDi9eQ2mBg9f-25" style="edgeStyle=orthogonalEdgeStyle;rounded=0;orthogonalLoop=1;jettySize=auto;html=1;entryX=1;entryY=0.5;entryDx=0;entryDy=0;" parent="1" source="NiqyQOjlXDi9eQ2mBg9f-11" target="NiqyQOjlXDi9eQ2mBg9f-22" edge="1">
          <mxGeometry relative="1" as="geometry" />
        </mxCell>
        <mxCell id="NiqyQOjlXDi9eQ2mBg9f-26" value="(0,1)" style="edgeLabel;html=1;align=center;verticalAlign=middle;resizable=0;points=[];" parent="NiqyQOjlXDi9eQ2mBg9f-25" vertex="1" connectable="0">
          <mxGeometry x="-0.2056" y="1" relative="1" as="geometry">
            <mxPoint as="offset" />
          </mxGeometry>
        </mxCell>
        <mxCell id="NiqyQOjlXDi9eQ2mBg9f-27" value="contiene" style="shape=rhombus;double=1;perimeter=rhombusPerimeter;whiteSpace=wrap;html=1;align=center;" parent="1" vertex="1">
          <mxGeometry x="470" y="939" width="120" height="60" as="geometry" />
        </mxCell>
        <mxCell id="NiqyQOjlXDi9eQ2mBg9f-28" style="edgeStyle=orthogonalEdgeStyle;rounded=0;orthogonalLoop=1;jettySize=auto;html=1;entryX=0;entryY=0.5;entryDx=0;entryDy=0;" parent="1" source="NiqyQOjlXDi9eQ2mBg9f-15" target="NiqyQOjlXDi9eQ2mBg9f-27" edge="1">
          <mxGeometry relative="1" as="geometry" />
        </mxCell>
        <mxCell id="NiqyQOjlXDi9eQ2mBg9f-29" value="(0,N)" style="edgeLabel;html=1;align=center;verticalAlign=middle;resizable=0;points=[];" parent="NiqyQOjlXDi9eQ2mBg9f-28" vertex="1" connectable="0">
          <mxGeometry x="-0.3738" relative="1" as="geometry">
            <mxPoint as="offset" />
          </mxGeometry>
        </mxCell>
        <mxCell id="NiqyQOjlXDi9eQ2mBg9f-30" style="edgeStyle=orthogonalEdgeStyle;rounded=0;orthogonalLoop=1;jettySize=auto;html=1;entryX=1;entryY=0.5;entryDx=0;entryDy=0;" parent="1" source="NiqyQOjlXDi9eQ2mBg9f-7" target="NiqyQOjlXDi9eQ2mBg9f-27" edge="1">
          <mxGeometry relative="1" as="geometry" />
        </mxCell>
        <mxCell id="NiqyQOjlXDi9eQ2mBg9f-31" value="(0,N)" style="edgeLabel;html=1;align=center;verticalAlign=middle;resizable=0;points=[];" parent="NiqyQOjlXDi9eQ2mBg9f-30" vertex="1" connectable="0">
          <mxGeometry x="-0.0955" relative="1" as="geometry">
            <mxPoint as="offset" />
          </mxGeometry>
        </mxCell>
        <mxCell id="NiqyQOjlXDi9eQ2mBg9f-32" value="inserisce" style="shape=rhombus;double=1;perimeter=rhombusPerimeter;whiteSpace=wrap;html=1;align=center;" parent="1" vertex="1">
          <mxGeometry x="760" y="560" width="120" height="60" as="geometry" />
        </mxCell>
        <mxCell id="NiqyQOjlXDi9eQ2mBg9f-34" value="Modificati: residenza&lt;br&gt;nome&lt;br&gt;cognome" style="shape=note;size=20;whiteSpace=wrap;html=1;" parent="1" vertex="1">
          <mxGeometry x="60" y="520" width="100" height="100" as="geometry" />
        </mxCell>
        <mxCell id="NiqyQOjlXDi9eQ2mBg9f-35" value="ha nome" style="shape=rhombus;double=1;perimeter=rhombusPerimeter;whiteSpace=wrap;html=1;align=center;" parent="1" vertex="1">
          <mxGeometry x="-100" y="400" width="120" height="60" as="geometry" />
        </mxCell>
        <mxCell id="NiqyQOjlXDi9eQ2mBg9f-36" value="(1,N)" style="edgeStyle=orthogonalEdgeStyle;rounded=0;orthogonalLoop=1;jettySize=auto;html=1;entryX=1;entryY=0.5;entryDx=0;entryDy=0;" parent="1" source="NiqyQOjlXDi9eQ2mBg9f-5" target="NiqyQOjlXDi9eQ2mBg9f-35" edge="1">
          <mxGeometry relative="1" as="geometry" />
        </mxCell>
        <mxCell id="NiqyQOjlXDi9eQ2mBg9f-38" style="edgeStyle=orthogonalEdgeStyle;rounded=0;orthogonalLoop=1;jettySize=auto;html=1;entryX=0;entryY=0.5;entryDx=0;entryDy=0;" parent="1" source="NiqyQOjlXDi9eQ2mBg9f-37" target="NiqyQOjlXDi9eQ2mBg9f-35" edge="1">
          <mxGeometry relative="1" as="geometry" />
        </mxCell>
        <mxCell id="NiqyQOjlXDi9eQ2mBg9f-37" value="NOME" style="swimlane;childLayout=stackLayout;horizontal=1;startSize=50;horizontalStack=0;rounded=1;fontSize=14;fontStyle=0;strokeWidth=2;resizeParent=0;resizeLast=1;shadow=0;dashed=0;align=center;arcSize=4;whiteSpace=wrap;html=1;" parent="1" vertex="1">
          <mxGeometry x="-350" y="385" width="160" height="90" as="geometry" />
        </mxCell>
        <mxCell id="NiqyQOjlXDi9eQ2mBg9f-44" value="+NOME" style="text;strokeColor=none;fillColor=none;spacingLeft=4;spacingRight=4;overflow=hidden;rotatable=0;points=[[0,0.5],[1,0.5]];portConstraint=eastwest;fontSize=12;whiteSpace=wrap;html=1;" parent="NiqyQOjlXDi9eQ2mBg9f-37" vertex="1">
          <mxGeometry y="50" width="160" height="40" as="geometry" />
        </mxCell>
        <mxCell id="NiqyQOjlXDi9eQ2mBg9f-45" style="edgeStyle=orthogonalEdgeStyle;rounded=0;orthogonalLoop=1;jettySize=auto;html=1;exitX=0;exitY=0.5;exitDx=0;exitDy=0;entryX=1;entryY=0.5;entryDx=0;entryDy=0;" parent="1" source="NiqyQOjlXDi9eQ2mBg9f-5" target="NiqyQOjlXDi9eQ2mBg9f-46" edge="1">
          <mxGeometry relative="1" as="geometry">
            <mxPoint y="320" as="targetPoint" />
            <Array as="points">
              <mxPoint x="180" y="480" />
              <mxPoint x="130" y="480" />
              <mxPoint x="130" y="320" />
            </Array>
          </mxGeometry>
        </mxCell>
        <mxCell id="NiqyQOjlXDi9eQ2mBg9f-46" value="ha cognome" style="shape=rhombus;double=1;perimeter=rhombusPerimeter;whiteSpace=wrap;html=1;align=center;" parent="1" vertex="1">
          <mxGeometry x="-100" y="290" width="120" height="60" as="geometry" />
        </mxCell>
        <mxCell id="NiqyQOjlXDi9eQ2mBg9f-49" style="edgeStyle=orthogonalEdgeStyle;rounded=0;orthogonalLoop=1;jettySize=auto;html=1;entryX=0;entryY=0.5;entryDx=0;entryDy=0;" parent="1" source="NiqyQOjlXDi9eQ2mBg9f-47" target="NiqyQOjlXDi9eQ2mBg9f-46" edge="1">
          <mxGeometry relative="1" as="geometry" />
        </mxCell>
        <mxCell id="NiqyQOjlXDi9eQ2mBg9f-47" value="COGNOME" style="swimlane;childLayout=stackLayout;horizontal=1;startSize=50;horizontalStack=0;rounded=1;fontSize=14;fontStyle=0;strokeWidth=2;resizeParent=0;resizeLast=1;shadow=0;dashed=0;align=center;arcSize=4;whiteSpace=wrap;html=1;" parent="1" vertex="1">
          <mxGeometry x="-350" y="274" width="160" height="90" as="geometry" />
        </mxCell>
        <mxCell id="NiqyQOjlXDi9eQ2mBg9f-48" value="+COGNOME" style="text;strokeColor=none;fillColor=none;spacingLeft=4;spacingRight=4;overflow=hidden;rotatable=0;points=[[0,0.5],[1,0.5]];portConstraint=eastwest;fontSize=12;whiteSpace=wrap;html=1;" parent="NiqyQOjlXDi9eQ2mBg9f-47" vertex="1">
          <mxGeometry y="50" width="160" height="40" as="geometry" />
        </mxCell>
        <mxCell id="NiqyQOjlXDi9eQ2mBg9f-50" value="ha autore" style="shape=rhombus;double=1;perimeter=rhombusPerimeter;whiteSpace=wrap;html=1;align=center;" parent="1" vertex="1">
          <mxGeometry x="890" y="750" width="120" height="60" as="geometry" />
        </mxCell>
        <mxCell id="NiqyQOjlXDi9eQ2mBg9f-54" style="edgeStyle=orthogonalEdgeStyle;rounded=0;orthogonalLoop=1;jettySize=auto;html=1;entryX=1;entryY=0.5;entryDx=0;entryDy=0;" parent="1" source="NiqyQOjlXDi9eQ2mBg9f-52" target="NiqyQOjlXDi9eQ2mBg9f-50" edge="1">
          <mxGeometry relative="1" as="geometry" />
        </mxCell>
        <mxCell id="NiqyQOjlXDi9eQ2mBg9f-57" value="(1,N)" style="edgeStyle=orthogonalEdgeStyle;rounded=0;orthogonalLoop=1;jettySize=auto;html=1;" parent="1" source="NiqyQOjlXDi9eQ2mBg9f-52" target="NiqyQOjlXDi9eQ2mBg9f-50" edge="1">
          <mxGeometry relative="1" as="geometry" />
        </mxCell>
        <mxCell id="NiqyQOjlXDi9eQ2mBg9f-52" value="AUTORE" style="swimlane;childLayout=stackLayout;horizontal=1;startSize=50;horizontalStack=0;rounded=1;fontSize=14;fontStyle=0;strokeWidth=2;resizeParent=0;resizeLast=1;shadow=0;dashed=0;align=center;arcSize=4;whiteSpace=wrap;html=1;" parent="1" vertex="1">
          <mxGeometry x="1070" y="737.5" width="160" height="85" as="geometry" />
        </mxCell>
        <mxCell id="NiqyQOjlXDi9eQ2mBg9f-53" value="+AUTORE" style="align=left;strokeColor=none;fillColor=none;spacingLeft=4;fontSize=12;verticalAlign=top;resizable=0;rotatable=0;part=1;html=1;" parent="NiqyQOjlXDi9eQ2mBg9f-52" vertex="1">
          <mxGeometry y="50" width="160" height="35" as="geometry" />
        </mxCell>
        <mxCell id="NiqyQOjlXDi9eQ2mBg9f-55" value="Modificato:&lt;br&gt;Autore" style="shape=note;size=20;whiteSpace=wrap;html=1;" parent="1" vertex="1">
          <mxGeometry x="620" y="810" width="100" height="100" as="geometry" />
        </mxCell>
        <mxCell id="NiqyQOjlXDi9eQ2mBg9f-58" value="Verificare:&lt;br&gt;(1,N)" style="shape=note;size=20;whiteSpace=wrap;html=1;" parent="1" vertex="1">
          <mxGeometry x="980" y="670" width="90" height="60" as="geometry" />
        </mxCell>
      </root>
    </mxGraphModel>
  </diagram>
</mxfile>
